<svg id="Layer_1" data-name="Layer 1" xmlns="http://www.w3.org/2000/svg" viewBox="0 0 433.25 509.07"><defs><style>.cls-1{fill:#2075bc;stroke:#fff;stroke-linecap:square;stroke-miterlimit:10;stroke-width:2px;}.cls-2{fill:#414142;}.cls-3{fill:#fff;}</style></defs><polygon class="cls-1" points="1 132.44 1 338.5 150.04 427.64 150.04 252.21 233.38 204.29 233.38 1.71 1 132.44"/><polygon class="cls-2" points="2 133.03 232.38 3.42 232.38 203.71 2 336.77 2 133.03"/><path class="cls-3" d="M270.76,6.6v198L42.38,336.51V135.08L270.76,6.6m2-3.42L40.38,133.91V340L272.76,205.75V3.18Z" transform="translate(-39.38 -1.47)"/><polygon class="cls-1" points="432.25 376.62 432.25 170.56 283.21 81.42 283.21 256.86 199.87 304.78 199.87 507.36 432.25 376.62"/><polygon class="cls-2" points="200.87 305.36 431.25 172.29 431.25 376.04 200.87 505.64 200.87 305.36"/><path class="cls-3" d="M469.62,175.49V376.92L241.24,505.4v-198L469.62,175.49m2-3.46L239.24,306.25V508.82L471.62,378.09V172Z" transform="translate(-39.38 -1.47)"/></svg>